<mxfile host="Electron" modified="2024-03-07T12:35:14.136Z" agent="Mozilla/5.0 (Windows NT 10.0; Win64; x64) AppleWebKit/537.36 (KHTML, like Gecko) draw.io/23.1.5 Chrome/120.0.6099.109 Electron/28.1.0 Safari/537.36" etag="xJ5O-pqOak7oDzTBKau2" version="23.1.5" type="device">
  <diagram id="O3whct_VJJggGx5-_gyD" name="Page-1">
    <mxGraphModel dx="687" dy="1535" grid="1" gridSize="10" guides="1" tooltips="1" connect="1" arrows="1" fold="1" page="1" pageScale="1" pageWidth="1920" pageHeight="1200" math="0" shadow="0">
      <root>
        <mxCell id="0" />
        <mxCell id="1" parent="0" />
        <mxCell id="2A00-U51EPKpvdlTjqj8-1" value="" style="rounded=0;whiteSpace=wrap;html=1;fontSize=22;fillColor=#f5f5f5;fontColor=#333333;strokeColor=#666666;direction=east;" parent="1" vertex="1">
          <mxGeometry x="2060" y="150" width="1970" height="1430" as="geometry" />
        </mxCell>
        <mxCell id="2A00-U51EPKpvdlTjqj8-2" value="&lt;span style=&quot;color: rgba(0 , 0 , 0 , 0) ; font-family: monospace ; font-size: 0px&quot;&gt;%3CmxGraphModel%3E%3Croot%3E%3CmxCell%20id%3D%220%22%2F%3E%3CmxCell%20id%3D%221%22%20parent%3D%220%22%2F%3E%3CmxCell%20id%3D%222%22%20value%3D%22%22%20style%3D%22rounded%3D0%3BwhiteSpace%3Dwrap%3Bhtml%3D1%3BstrokeWidth%3D2%3BfillColor%3D%23dae8fc%3BstrokeColor%3D%236c8ebf%3B%22%20vertex%3D%221%22%20parent%3D%221%22%3E%3CmxGeometry%20x%3D%22-120%22%20y%3D%22190%22%20width%3D%221920%22%20height%3D%22240%22%20as%3D%22geometry%22%2F%3E%3C%2FmxCell%3E%3C%2Froot%3E%3C%2FmxGraphModel%3E&lt;/span&gt;" style="rounded=0;whiteSpace=wrap;html=1;strokeWidth=2;" parent="1" vertex="1">
          <mxGeometry x="2090" y="865" width="1910" height="350" as="geometry" />
        </mxCell>
        <mxCell id="2A00-U51EPKpvdlTjqj8-3" value="&lt;span style=&quot;color: rgba(0 , 0 , 0 , 0) ; font-family: monospace ; font-size: 0px&quot;&gt;%3CmxGraphModel%3E%3Croot%3E%3CmxCell%20id%3D%220%22%2F%3E%3CmxCell%20id%3D%221%22%20parent%3D%220%22%2F%3E%3CmxCell%20id%3D%222%22%20value%3D%22%22%20style%3D%22rounded%3D0%3BwhiteSpace%3Dwrap%3Bhtml%3D1%3BstrokeWidth%3D2%3BfillColor%3D%23dae8fc%3BstrokeColor%3D%236c8ebf%3B%22%20vertex%3D%221%22%20parent%3D%221%22%3E%3CmxGeometry%20x%3D%22-120%22%20y%3D%22190%22%20width%3D%221920%22%20height%3D%22240%22%20as%3D%22geometry%22%2F%3E%3C%2FmxCell%3E%3C%2Froot%3E%3C%2FmxGraphModel%3E&lt;/span&gt;" style="rounded=0;whiteSpace=wrap;html=1;strokeWidth=2;" parent="1" vertex="1">
          <mxGeometry x="2090" y="1210.24" width="1910" height="349.76" as="geometry" />
        </mxCell>
        <mxCell id="2A00-U51EPKpvdlTjqj8-4" value="&lt;span style=&quot;color: rgba(0 , 0 , 0 , 0) ; font-family: monospace ; font-size: 0px&quot;&gt;%3CmxGraphModel%3E%3Croot%3E%3CmxCell%20id%3D%220%22%2F%3E%3CmxCell%20id%3D%221%22%20parent%3D%220%22%2F%3E%3CmxCell%20id%3D%222%22%20value%3D%22%22%20style%3D%22rounded%3D0%3BwhiteSpace%3Dwrap%3Bhtml%3D1%3BstrokeWidth%3D2%3BfillColor%3D%23dae8fc%3BstrokeColor%3D%236c8ebf%3B%22%20vertex%3D%221%22%20parent%3D%221%22%3E%3CmxGeometry%20x%3D%22-120%22%20y%3D%22190%22%20width%3D%221920%22%20height%3D%22240%22%20as%3D%22geometry%22%2F%3E%3C%2FmxCell%3E%3C%2Froot%3E%3C%2FmxGraphModel%3E&lt;/span&gt;" style="rounded=0;whiteSpace=wrap;html=1;strokeWidth=2;" parent="1" vertex="1">
          <mxGeometry x="2090" y="210" width="1910" height="199" as="geometry" />
        </mxCell>
        <mxCell id="2A00-U51EPKpvdlTjqj8-5" value="&lt;span style=&quot;color: rgba(0 , 0 , 0 , 0) ; font-family: monospace ; font-size: 0px&quot;&gt;%3CmxGraphModel%3E%3Croot%3E%3CmxCell%20id%3D%220%22%2F%3E%3CmxCell%20id%3D%221%22%20parent%3D%220%22%2F%3E%3CmxCell%20id%3D%222%22%20value%3D%22%22%20style%3D%22rounded%3D0%3BwhiteSpace%3Dwrap%3Bhtml%3D1%3BstrokeWidth%3D2%3BfillColor%3D%23dae8fc%3BstrokeColor%3D%236c8ebf%3B%22%20vertex%3D%221%22%20parent%3D%221%22%3E%3CmxGeometry%20x%3D%22-120%22%20y%3D%22190%22%20width%3D%221920%22%20height%3D%22240%22%20as%3D%22geometry%22%2F%3E%3C%2FmxCell%3E%3C%2Froot%3E%3C%2FmxGraphModel%3E&lt;/span&gt;" style="rounded=0;whiteSpace=wrap;html=1;strokeWidth=2;" parent="1" vertex="1">
          <mxGeometry x="2090" y="410" width="1910" height="200" as="geometry" />
        </mxCell>
        <mxCell id="2A00-U51EPKpvdlTjqj8-6" value="&lt;span style=&quot;color: rgba(0 , 0 , 0 , 0) ; font-family: monospace ; font-size: 0px&quot;&gt;%3CmxGraphModel%3E%3Croot%3E%3CmxCell%20id%3D%220%22%2F%3E%3CmxCell%20id%3D%221%22%20parent%3D%220%22%2F%3E%3CmxCell%20id%3D%222%22%20value%3D%22%22%20style%3D%22rounded%3D0%3BwhiteSpace%3Dwrap%3Bhtml%3D1%3BstrokeWidth%3D2%3BfillColor%3D%23dae8fc%3BstrokeColor%3D%236c8ebf%3B%22%20vertex%3D%221%22%20parent%3D%221%22%3E%3CmxGeometry%20x%3D%22-120%22%20y%3D%22190%22%20width%3D%221920%22%20height%3D%22240%22%20as%3D%22geometry%22%2F%3E%3C%2FmxCell%3E%3C%2Froot%3E%3C%2FmxGraphModel%3E&lt;/span&gt;" style="rounded=0;whiteSpace=wrap;html=1;strokeWidth=2;" parent="1" vertex="1">
          <mxGeometry x="2090" y="610" width="1910" height="250" as="geometry" />
        </mxCell>
        <mxCell id="2A00-U51EPKpvdlTjqj8-11" value="APPLICANT" style="text;html=1;align=center;verticalAlign=middle;resizable=0;points=[];autosize=1;strokeColor=none;fillColor=none;fontStyle=1;strokeWidth=2;fontSize=22;horizontal=0;" parent="1" vertex="1">
          <mxGeometry x="2080" y="244" width="50" height="140" as="geometry" />
        </mxCell>
        <mxCell id="2A00-U51EPKpvdlTjqj8-12" value="PARENT/&lt;br&gt;GUARDIAN/&lt;br style=&quot;font-size: 22px;&quot;&gt;INTRODUCER" style="text;html=1;align=center;verticalAlign=middle;resizable=0;points=[];autosize=1;strokeColor=none;fillColor=none;fontStyle=1;strokeWidth=2;fontSize=22;horizontal=0;" parent="1" vertex="1">
          <mxGeometry x="2080" y="420" width="100" height="160" as="geometry" />
        </mxCell>
        <mxCell id="2A00-U51EPKpvdlTjqj8-13" value="ADMINISTRATOR" style="text;html=1;align=center;verticalAlign=middle;resizable=0;points=[];autosize=1;strokeColor=none;fillColor=none;fontStyle=1;strokeWidth=2;fontSize=22;horizontal=0;" parent="1" vertex="1">
          <mxGeometry x="2090" y="625" width="50" height="200" as="geometry" />
        </mxCell>
        <mxCell id="2A00-U51EPKpvdlTjqj8-14" value="E" style="ellipse;whiteSpace=wrap;html=1;aspect=fixed;fontSize=32;strokeWidth=2;fontStyle=1" parent="1" vertex="1">
          <mxGeometry x="2090" y="158" width="45" height="45" as="geometry" />
        </mxCell>
        <mxCell id="2A00-U51EPKpvdlTjqj8-51" value="OB.1.4" style="text;html=1;align=center;verticalAlign=middle;resizable=0;points=[];autosize=1;strokeColor=none;fillColor=none;fontStyle=1;fontSize=30;strokeWidth=2;" parent="1" vertex="1">
          <mxGeometry x="2875" y="158" width="120" height="50" as="geometry" />
        </mxCell>
        <mxCell id="2A00-U51EPKpvdlTjqj8-52" value="APPLICATION APPROVAL/REJECTION" style="text;html=1;align=center;verticalAlign=middle;resizable=0;points=[];autosize=1;strokeColor=none;fillColor=none;fontStyle=1;fontSize=30;strokeWidth=2;" parent="1" vertex="1">
          <mxGeometry x="3422" y="158" width="580" height="50" as="geometry" />
        </mxCell>
        <mxCell id="2A00-U51EPKpvdlTjqj8-53" value="PRIVATE NETWORK&lt;br style=&quot;border-color: var(--border-color);&quot;&gt;SYSTEMS (SERVER)" style="text;html=1;align=center;verticalAlign=middle;resizable=0;points=[];autosize=1;strokeColor=none;fillColor=none;fontStyle=1;fontSize=23;strokeWidth=2;horizontal=0;" parent="1" vertex="1">
          <mxGeometry x="2100" y="1259.5" width="80" height="240" as="geometry" />
        </mxCell>
        <mxCell id="2A00-U51EPKpvdlTjqj8-54" value="PUBLIC NETWORK&lt;br style=&quot;border-color: var(--border-color);&quot;&gt;SYSTEMS (CLIENT)" style="text;html=1;align=center;verticalAlign=middle;resizable=0;points=[];autosize=1;strokeColor=none;fillColor=none;fontStyle=1;fontSize=23;strokeWidth=2;horizontal=0;" parent="1" vertex="1">
          <mxGeometry x="2100" y="920" width="80" height="230" as="geometry" />
        </mxCell>
        <mxCell id="2A00-U51EPKpvdlTjqj8-55" value="&lt;font style=&quot;font-size: 14px;&quot;&gt;PUBLIC NETWORK&lt;/font&gt;" style="swimlane;whiteSpace=wrap;html=1;" parent="1" vertex="1">
          <mxGeometry x="4030" y="894" width="200" height="167" as="geometry" />
        </mxCell>
        <mxCell id="2A00-U51EPKpvdlTjqj8-56" value="DNS SERVERS" style="text;html=1;strokeColor=none;fillColor=none;align=center;verticalAlign=middle;whiteSpace=wrap;rounded=0;fontSize=14;" parent="2A00-U51EPKpvdlTjqj8-55" vertex="1">
          <mxGeometry y="27" width="200" height="28" as="geometry" />
        </mxCell>
        <mxCell id="2A00-U51EPKpvdlTjqj8-57" value="FTP SERVERS" style="text;html=1;strokeColor=none;fillColor=none;align=center;verticalAlign=middle;whiteSpace=wrap;rounded=0;fontSize=14;" parent="2A00-U51EPKpvdlTjqj8-55" vertex="1">
          <mxGeometry y="55" width="200" height="28" as="geometry" />
        </mxCell>
        <mxCell id="2A00-U51EPKpvdlTjqj8-58" value="MAIL SERVERS" style="text;html=1;strokeColor=none;fillColor=none;align=center;verticalAlign=middle;whiteSpace=wrap;rounded=0;fontSize=14;" parent="2A00-U51EPKpvdlTjqj8-55" vertex="1">
          <mxGeometry y="83" width="200" height="28" as="geometry" />
        </mxCell>
        <mxCell id="2A00-U51EPKpvdlTjqj8-59" value="PROXY SERVERS" style="text;html=1;strokeColor=none;fillColor=none;align=center;verticalAlign=middle;whiteSpace=wrap;rounded=0;fontSize=14;" parent="2A00-U51EPKpvdlTjqj8-55" vertex="1">
          <mxGeometry y="111" width="200" height="28" as="geometry" />
        </mxCell>
        <mxCell id="2A00-U51EPKpvdlTjqj8-60" value="WEB SERVERS" style="text;html=1;strokeColor=none;fillColor=none;align=center;verticalAlign=middle;whiteSpace=wrap;rounded=0;fontSize=14;" parent="2A00-U51EPKpvdlTjqj8-55" vertex="1">
          <mxGeometry y="139" width="200" height="28" as="geometry" />
        </mxCell>
        <mxCell id="2A00-U51EPKpvdlTjqj8-63" value="USER" style="shape=umlActor;verticalLabelPosition=bottom;verticalAlign=top;html=1;outlineConnect=0;fontStyle=1" parent="1" vertex="1">
          <mxGeometry x="2180" y="270" width="30" height="60" as="geometry" />
        </mxCell>
        <mxCell id="2A00-U51EPKpvdlTjqj8-64" value="P/G/I" style="shape=umlActor;verticalLabelPosition=bottom;verticalAlign=top;html=1;outlineConnect=0;fontStyle=1" parent="1" vertex="1">
          <mxGeometry x="2180" y="460" width="30" height="60" as="geometry" />
        </mxCell>
        <mxCell id="2A00-U51EPKpvdlTjqj8-65" value="ADMIN" style="shape=umlActor;verticalLabelPosition=bottom;verticalAlign=top;html=1;outlineConnect=0;fontStyle=1" parent="1" vertex="1">
          <mxGeometry x="2180" y="665" width="30" height="60" as="geometry" />
        </mxCell>
        <mxCell id="2A00-U51EPKpvdlTjqj8-119" value="&lt;font style=&quot;font-size: 14px;&quot;&gt;LEGEND&lt;/font&gt;" style="swimlane;whiteSpace=wrap;html=1;" parent="1" vertex="1">
          <mxGeometry x="4030" y="210" width="200" height="260" as="geometry" />
        </mxCell>
        <mxCell id="2A00-U51EPKpvdlTjqj8-120" value="KM" style="ellipse;whiteSpace=wrap;html=1;fillColor=#dae8fc;strokeColor=#6c8ebf;gradientColor=#7ea6e0;fontStyle=1" parent="2A00-U51EPKpvdlTjqj8-119" vertex="1">
          <mxGeometry x="10" y="30" width="30" height="26" as="geometry" />
        </mxCell>
        <mxCell id="2A00-U51EPKpvdlTjqj8-121" value="IDA" style="ellipse;whiteSpace=wrap;html=1;fillColor=#dae8fc;strokeColor=#6c8ebf;gradientColor=#7ea6e0;fontStyle=1" parent="2A00-U51EPKpvdlTjqj8-119" vertex="1">
          <mxGeometry x="10" y="131" width="30" height="26" as="geometry" />
        </mxCell>
        <mxCell id="2A00-U51EPKpvdlTjqj8-122" value="HSM" style="ellipse;whiteSpace=wrap;html=1;fillColor=#dae8fc;strokeColor=#6c8ebf;gradientColor=#7ea6e0;fontStyle=1" parent="2A00-U51EPKpvdlTjqj8-119" vertex="1">
          <mxGeometry x="10" y="91" width="30" height="26" as="geometry" />
        </mxCell>
        <mxCell id="2A00-U51EPKpvdlTjqj8-123" value="KR" style="ellipse;whiteSpace=wrap;html=1;fillColor=#dae8fc;strokeColor=#6c8ebf;gradientColor=#7ea6e0;fontStyle=1" parent="2A00-U51EPKpvdlTjqj8-119" vertex="1">
          <mxGeometry x="10" y="59" width="30" height="26" as="geometry" />
        </mxCell>
        <mxCell id="2A00-U51EPKpvdlTjqj8-124" value="Key Manager" style="text;html=1;strokeColor=none;fillColor=none;align=center;verticalAlign=middle;whiteSpace=wrap;rounded=0;fontSize=14;" parent="2A00-U51EPKpvdlTjqj8-119" vertex="1">
          <mxGeometry x="40" y="30" width="160" height="28" as="geometry" />
        </mxCell>
        <mxCell id="2A00-U51EPKpvdlTjqj8-125" value="Key Revocation" style="text;html=1;strokeColor=none;fillColor=none;align=center;verticalAlign=middle;whiteSpace=wrap;rounded=0;fontSize=14;" parent="2A00-U51EPKpvdlTjqj8-119" vertex="1">
          <mxGeometry x="40" y="58" width="160" height="28" as="geometry" />
        </mxCell>
        <mxCell id="2A00-U51EPKpvdlTjqj8-126" value="Hardware Security Module" style="text;html=1;strokeColor=none;fillColor=none;align=center;verticalAlign=middle;whiteSpace=wrap;rounded=0;fontSize=14;" parent="2A00-U51EPKpvdlTjqj8-119" vertex="1">
          <mxGeometry x="40" y="90" width="160" height="28" as="geometry" />
        </mxCell>
        <mxCell id="2A00-U51EPKpvdlTjqj8-127" value="ID Authentication (DB)" style="text;html=1;strokeColor=none;fillColor=none;align=center;verticalAlign=middle;whiteSpace=wrap;rounded=0;fontSize=14;" parent="2A00-U51EPKpvdlTjqj8-119" vertex="1">
          <mxGeometry x="40" y="130" width="160" height="28" as="geometry" />
        </mxCell>
        <mxCell id="2A00-U51EPKpvdlTjqj8-128" value="AC" style="ellipse;whiteSpace=wrap;html=1;fillColor=#dae8fc;strokeColor=#6c8ebf;gradientColor=#7ea6e0;fontStyle=1" parent="2A00-U51EPKpvdlTjqj8-119" vertex="1">
          <mxGeometry x="10" y="161" width="30" height="26" as="geometry" />
        </mxCell>
        <mxCell id="2A00-U51EPKpvdlTjqj8-129" value="Access Control" style="text;html=1;strokeColor=none;fillColor=none;align=center;verticalAlign=middle;whiteSpace=wrap;rounded=0;fontSize=14;" parent="2A00-U51EPKpvdlTjqj8-119" vertex="1">
          <mxGeometry x="40" y="160" width="160" height="28" as="geometry" />
        </mxCell>
        <mxCell id="2A00-U51EPKpvdlTjqj8-130" value="Certificate Authority" style="text;html=1;strokeColor=none;fillColor=none;align=center;verticalAlign=middle;whiteSpace=wrap;rounded=0;fontSize=14;" parent="2A00-U51EPKpvdlTjqj8-119" vertex="1">
          <mxGeometry x="40" y="190" width="160" height="28" as="geometry" />
        </mxCell>
        <mxCell id="2A00-U51EPKpvdlTjqj8-131" value="CA" style="ellipse;whiteSpace=wrap;html=1;fillColor=#dae8fc;strokeColor=#6c8ebf;gradientColor=#7ea6e0;fontStyle=1" parent="2A00-U51EPKpvdlTjqj8-119" vertex="1">
          <mxGeometry x="10" y="191" width="30" height="26" as="geometry" />
        </mxCell>
        <mxCell id="2A00-U51EPKpvdlTjqj8-132" value="" style="rhombus;whiteSpace=wrap;html=1;fillColor=#fff2cc;strokeColor=#d6b656;rounded=0;fontStyle=1;strokeWidth=2;" parent="2A00-U51EPKpvdlTjqj8-119" vertex="1">
          <mxGeometry x="10" y="224" width="30" height="30" as="geometry" />
        </mxCell>
        <mxCell id="2A00-U51EPKpvdlTjqj8-133" value="Deduplication Process" style="text;html=1;strokeColor=none;fillColor=none;align=center;verticalAlign=middle;whiteSpace=wrap;rounded=0;fontSize=14;" parent="2A00-U51EPKpvdlTjqj8-119" vertex="1">
          <mxGeometry x="40" y="224" width="160" height="28" as="geometry" />
        </mxCell>
        <mxCell id="2A00-U51EPKpvdlTjqj8-256" style="edgeStyle=orthogonalEdgeStyle;rounded=0;orthogonalLoop=1;jettySize=auto;html=1;exitX=0.5;exitY=1;exitDx=0;exitDy=0;exitPerimeter=0;entryX=0.5;entryY=0;entryDx=0;entryDy=0;strokeColor=#00CC00;fontStyle=1;strokeWidth=2;" parent="1" source="2A00-U51EPKpvdlTjqj8-255" target="5T0MHAKWSlorxYL1akFM-2" edge="1">
          <mxGeometry relative="1" as="geometry">
            <mxPoint x="2280" y="370" as="targetPoint" />
          </mxGeometry>
        </mxCell>
        <mxCell id="2A00-U51EPKpvdlTjqj8-255" value="&lt;b&gt;START&lt;/b&gt;" style="strokeWidth=2;html=1;shape=mxgraph.flowchart.terminator;whiteSpace=wrap;fillColor=#d5e8d4;strokeColor=#82b366;" parent="1" vertex="1">
          <mxGeometry x="2227" y="640" width="100" height="40" as="geometry" />
        </mxCell>
        <mxCell id="5T0MHAKWSlorxYL1akFM-5" style="edgeStyle=orthogonalEdgeStyle;rounded=0;orthogonalLoop=1;jettySize=auto;html=1;exitX=1;exitY=0.5;exitDx=0;exitDy=0;entryX=0.5;entryY=1;entryDx=0;entryDy=0;strokeColor=#00CC00;fontStyle=1;strokeWidth=2;" parent="1" source="8eKBUWW6FmaFlCSRCfbh-4" target="5T0MHAKWSlorxYL1akFM-3" edge="1">
          <mxGeometry relative="1" as="geometry" />
        </mxCell>
        <mxCell id="8eKBUWW6FmaFlCSRCfbh-4" value="IF&lt;br&gt;RID ACCOUNT&lt;br&gt;EXIST" style="rounded=0;whiteSpace=wrap;html=1;fontStyle=1;strokeWidth=2;shape=rhombus;perimeter=rhombusPerimeter;" parent="1" vertex="1">
          <mxGeometry x="2231" y="1272.5" width="94" height="80" as="geometry" />
        </mxCell>
        <mxCell id="2A00-U51EPKpvdlTjqj8-257" style="edgeStyle=orthogonalEdgeStyle;rounded=0;orthogonalLoop=1;jettySize=auto;html=1;exitX=0.5;exitY=0;exitDx=0;exitDy=0;entryX=0.5;entryY=1;entryDx=0;entryDy=0;strokeColor=#FF0000;fontStyle=1;strokeWidth=2;" parent="1" source="_-J-_Ixpa1AOM5gLo02t-10" target="5T0MHAKWSlorxYL1akFM-8" edge="1">
          <mxGeometry relative="1" as="geometry" />
        </mxCell>
        <mxCell id="2A00-U51EPKpvdlTjqj8-273" style="edgeStyle=orthogonalEdgeStyle;rounded=0;orthogonalLoop=1;jettySize=auto;html=1;exitX=1;exitY=0.5;exitDx=0;exitDy=0;entryX=0;entryY=0.5;entryDx=0;entryDy=0;strokeColor=#00CC00;fontStyle=1;strokeWidth=2;" parent="1" source="_-J-_Ixpa1AOM5gLo02t-10" target="_-J-_Ixpa1AOM5gLo02t-20" edge="1">
          <mxGeometry relative="1" as="geometry">
            <Array as="points">
              <mxPoint x="2950" y="1348" />
              <mxPoint x="2950" y="1433" />
            </Array>
          </mxGeometry>
        </mxCell>
        <mxCell id="_-J-_Ixpa1AOM5gLo02t-10" value="IF&lt;br&gt;BIOMETRIC DATA&lt;br&gt;MISSING WITH &lt;br&gt;REASON" style="rounded=0;whiteSpace=wrap;html=1;fontStyle=1;strokeWidth=2;shape=rhombus;perimeter=rhombusPerimeter;" parent="1" vertex="1">
          <mxGeometry x="2670" y="1291.25" width="130" height="112.5" as="geometry" />
        </mxCell>
        <mxCell id="5T0MHAKWSlorxYL1akFM-19" style="edgeStyle=orthogonalEdgeStyle;rounded=0;orthogonalLoop=1;jettySize=auto;html=1;exitX=0.5;exitY=1;exitDx=0;exitDy=0;strokeColor=#FF0000;fontStyle=1;strokeWidth=2;entryX=0;entryY=0.5;entryDx=0;entryDy=0;entryPerimeter=0;" parent="1" source="_-J-_Ixpa1AOM5gLo02t-20" target="_-J-_Ixpa1AOM5gLo02t-32" edge="1">
          <mxGeometry relative="1" as="geometry">
            <mxPoint x="3421" y="1340" as="targetPoint" />
            <Array as="points">
              <mxPoint x="3090" y="1502" />
            </Array>
          </mxGeometry>
        </mxCell>
        <mxCell id="5T0MHAKWSlorxYL1akFM-28" style="edgeStyle=orthogonalEdgeStyle;rounded=0;orthogonalLoop=1;jettySize=auto;html=1;exitX=0.5;exitY=0;exitDx=0;exitDy=0;entryX=0;entryY=0.5;entryDx=0;entryDy=0;strokeColor=#00CC00;fontStyle=1;strokeWidth=2;" parent="1" source="_-J-_Ixpa1AOM5gLo02t-20" target="5T0MHAKWSlorxYL1akFM-27" edge="1">
          <mxGeometry relative="1" as="geometry">
            <Array as="points">
              <mxPoint x="3090" y="1360" />
              <mxPoint x="2970" y="1360" />
              <mxPoint x="2970" y="1298" />
            </Array>
          </mxGeometry>
        </mxCell>
        <mxCell id="_-J-_Ixpa1AOM5gLo02t-20" value="IF&lt;br&gt;APPLICANT DEMOGRAPHIC AND BIOMETRIC DATA&lt;br&gt;IS UNIQUE" style="rounded=0;whiteSpace=wrap;html=1;fontStyle=1;strokeWidth=2;shape=rhombus;perimeter=rhombusPerimeter;fillColor=#fff2cc;strokeColor=#d6b656;" parent="1" vertex="1">
          <mxGeometry x="3020" y="1372.5" width="140" height="120" as="geometry" />
        </mxCell>
        <mxCell id="2A00-U51EPKpvdlTjqj8-295" style="edgeStyle=orthogonalEdgeStyle;rounded=0;orthogonalLoop=1;jettySize=auto;html=1;exitX=0.5;exitY=0;exitDx=0;exitDy=0;exitPerimeter=0;entryX=0.5;entryY=1;entryDx=0;entryDy=0;strokeColor=#00CC00;fontStyle=1;strokeWidth=2;" parent="1" source="_-J-_Ixpa1AOM5gLo02t-32" target="2A00-U51EPKpvdlTjqj8-293" edge="1">
          <mxGeometry relative="1" as="geometry" />
        </mxCell>
        <mxCell id="_-J-_Ixpa1AOM5gLo02t-32" value="&lt;span style=&quot;border-color: var(--border-color);&quot;&gt;&lt;b&gt;TERMINATE PROCESS:&lt;/b&gt;&lt;br&gt;REJECT APPLICATION&lt;br&gt;&lt;/span&gt;" style="strokeWidth=2;html=1;shape=mxgraph.flowchart.terminator;whiteSpace=wrap;fillColor=#f8cecc;strokeColor=#b85450;" parent="1" vertex="1">
          <mxGeometry x="3590" y="1477" width="160" height="50" as="geometry" />
        </mxCell>
        <mxCell id="5T0MHAKWSlorxYL1akFM-4" style="edgeStyle=orthogonalEdgeStyle;rounded=0;orthogonalLoop=1;jettySize=auto;html=1;exitX=0.5;exitY=1;exitDx=0;exitDy=0;entryX=0.5;entryY=0;entryDx=0;entryDy=0;strokeColor=#00CC00;fontStyle=1;strokeWidth=2;" parent="1" source="5T0MHAKWSlorxYL1akFM-2" target="8eKBUWW6FmaFlCSRCfbh-4" edge="1">
          <mxGeometry relative="1" as="geometry" />
        </mxCell>
        <mxCell id="5T0MHAKWSlorxYL1akFM-2" value="RECEIVES RID OF APPLICANT" style="rounded=0;whiteSpace=wrap;html=1;strokeWidth=2;fontStyle=1" parent="1" vertex="1">
          <mxGeometry x="2227" y="732.5" width="100" height="60" as="geometry" />
        </mxCell>
        <mxCell id="5T0MHAKWSlorxYL1akFM-7" value="&lt;br&gt;&lt;span style=&quot;font-size: 14px;&quot;&gt;&lt;br&gt;&lt;/span&gt;" style="edgeStyle=orthogonalEdgeStyle;rounded=0;orthogonalLoop=1;jettySize=auto;html=1;exitX=1;exitY=0.5;exitDx=0;exitDy=0;entryX=0;entryY=0.5;entryDx=0;entryDy=0;strokeColor=#00CC00;fontStyle=1;strokeWidth=2;" parent="1" source="5T0MHAKWSlorxYL1akFM-3" target="5T0MHAKWSlorxYL1akFM-6" edge="1">
          <mxGeometry x="0.0723" y="30" relative="1" as="geometry">
            <Array as="points">
              <mxPoint x="2460" y="1348" />
            </Array>
            <mxPoint as="offset" />
          </mxGeometry>
        </mxCell>
        <mxCell id="5T0MHAKWSlorxYL1akFM-3" value="CHECK COMPLETENESS OF APPLICANT DATA" style="rounded=0;whiteSpace=wrap;html=1;strokeWidth=2;fontStyle=1" parent="1" vertex="1">
          <mxGeometry x="2340" y="667.5" width="120" height="65" as="geometry" />
        </mxCell>
        <mxCell id="2A00-U51EPKpvdlTjqj8-262" style="edgeStyle=orthogonalEdgeStyle;rounded=0;orthogonalLoop=1;jettySize=auto;html=1;exitX=0.5;exitY=1;exitDx=0;exitDy=0;entryX=0;entryY=0.5;entryDx=0;entryDy=0;strokeColor=#FF0000;fontStyle=1;strokeWidth=2;" parent="1" source="5T0MHAKWSlorxYL1akFM-6" target="2A00-U51EPKpvdlTjqj8-260" edge="1">
          <mxGeometry relative="1" as="geometry" />
        </mxCell>
        <mxCell id="2A00-U51EPKpvdlTjqj8-272" style="edgeStyle=orthogonalEdgeStyle;rounded=0;orthogonalLoop=1;jettySize=auto;html=1;exitX=0.5;exitY=0;exitDx=0;exitDy=0;entryX=0;entryY=0.5;entryDx=0;entryDy=0;strokeColor=#00CC00;fontStyle=1;strokeWidth=2;jumpStyle=arc;jumpSize=11;" parent="1" source="5T0MHAKWSlorxYL1akFM-6" target="_-J-_Ixpa1AOM5gLo02t-20" edge="1">
          <mxGeometry relative="1" as="geometry">
            <Array as="points">
              <mxPoint x="2545" y="1274" />
              <mxPoint x="2960" y="1274" />
              <mxPoint x="2960" y="1433" />
              <mxPoint x="3020" y="1433" />
            </Array>
          </mxGeometry>
        </mxCell>
        <mxCell id="5T0MHAKWSlorxYL1akFM-6" value="IF ALL &lt;br&gt;BIOMETRIC DATA &lt;br&gt;OF APPLICANT &lt;br&gt;CAPTURED" style="rounded=0;whiteSpace=wrap;html=1;fontStyle=1;strokeWidth=2;shape=rhombus;perimeter=rhombusPerimeter;" parent="1" vertex="1">
          <mxGeometry x="2480" y="1294" width="130" height="106.25" as="geometry" />
        </mxCell>
        <mxCell id="5T0MHAKWSlorxYL1akFM-13" style="edgeStyle=orthogonalEdgeStyle;rounded=0;orthogonalLoop=1;jettySize=auto;html=1;exitX=1;exitY=0.5;exitDx=0;exitDy=0;entryX=0.5;entryY=0;entryDx=0;entryDy=0;entryPerimeter=0;strokeColor=#00CC00;fontStyle=1;strokeWidth=2;jumpStyle=arc;jumpSize=11;" parent="1" source="5T0MHAKWSlorxYL1akFM-8" target="5T0MHAKWSlorxYL1akFM-12" edge="1">
          <mxGeometry relative="1" as="geometry" />
        </mxCell>
        <mxCell id="5T0MHAKWSlorxYL1akFM-8" value="FILLS APPROPRIATE REASON FOR MISSING BIOMETRIC DATA" style="rounded=0;whiteSpace=wrap;html=1;strokeWidth=2;fontStyle=1" parent="1" vertex="1">
          <mxGeometry x="2666.25" y="667.5" width="137.5" height="62.5" as="geometry" />
        </mxCell>
        <mxCell id="5T0MHAKWSlorxYL1akFM-14" style="edgeStyle=orthogonalEdgeStyle;rounded=0;orthogonalLoop=1;jettySize=auto;html=1;exitX=1;exitY=0;exitDx=0;exitDy=37.5;exitPerimeter=0;entryX=0;entryY=0.5;entryDx=0;entryDy=0;strokeColor=#00CC00;fontStyle=1;strokeWidth=2;" parent="1" source="5T0MHAKWSlorxYL1akFM-12" target="_-J-_Ixpa1AOM5gLo02t-20" edge="1">
          <mxGeometry relative="1" as="geometry">
            <Array as="points">
              <mxPoint x="2935" y="1433" />
              <mxPoint x="2977" y="1433" />
            </Array>
          </mxGeometry>
        </mxCell>
        <mxCell id="5T0MHAKWSlorxYL1akFM-12" value="STORES SPECIAL CASE REASON FOR MISSING BIOMETRIC DATA IN RID ACCOUNT" style="shape=label;whiteSpace=wrap;html=1;boundedLbl=1;backgroundOutline=1;size=15;rounded=0;fontStyle=1;strokeWidth=2;" parent="1" vertex="1">
          <mxGeometry x="2795" y="1390.12" width="140" height="89.88" as="geometry" />
        </mxCell>
        <mxCell id="5T0MHAKWSlorxYL1akFM-31" style="edgeStyle=orthogonalEdgeStyle;rounded=0;orthogonalLoop=1;jettySize=auto;html=1;exitX=1;exitY=0.5;exitDx=0;exitDy=0;entryX=0;entryY=0.5;entryDx=0;entryDy=0;strokeColor=#00CC00;fontStyle=1;strokeWidth=2;" parent="1" source="5T0MHAKWSlorxYL1akFM-27" target="5T0MHAKWSlorxYL1akFM-29" edge="1">
          <mxGeometry relative="1" as="geometry" />
        </mxCell>
        <mxCell id="5T0MHAKWSlorxYL1akFM-27" value="IF&lt;br&gt;APPLYING &lt;br&gt;WITH &lt;br&gt;P/G/I" style="rounded=0;whiteSpace=wrap;html=1;fontStyle=1;strokeWidth=2;shape=rhombus;perimeter=rhombusPerimeter;" parent="1" vertex="1">
          <mxGeometry x="2990" y="1260" width="100" height="76.25" as="geometry" />
        </mxCell>
        <mxCell id="5T0MHAKWSlorxYL1akFM-33" style="edgeStyle=orthogonalEdgeStyle;rounded=0;orthogonalLoop=1;jettySize=auto;html=1;exitX=1;exitY=0.5;exitDx=0;exitDy=0;entryX=0;entryY=0.5;entryDx=0;entryDy=0;strokeColor=#00CC00;fontStyle=1;strokeWidth=2;" parent="1" source="5T0MHAKWSlorxYL1akFM-29" target="5T0MHAKWSlorxYL1akFM-32" edge="1">
          <mxGeometry relative="1" as="geometry" />
        </mxCell>
        <mxCell id="5T0MHAKWSlorxYL1akFM-29" value="IF&lt;br&gt;P/G/I UIN/RID &lt;br&gt;NEEDED" style="rounded=0;whiteSpace=wrap;html=1;fontStyle=1;strokeWidth=2;shape=rhombus;perimeter=rhombusPerimeter;" parent="1" vertex="1">
          <mxGeometry x="3115" y="1261.8700000000001" width="95" height="72.5" as="geometry" />
        </mxCell>
        <mxCell id="2A00-U51EPKpvdlTjqj8-280" style="edgeStyle=orthogonalEdgeStyle;rounded=0;orthogonalLoop=1;jettySize=auto;html=1;exitX=1;exitY=0.5;exitDx=0;exitDy=0;strokeColor=#00CC00;fontStyle=1;strokeWidth=2;jumpStyle=arc;jumpSize=11;" parent="1" source="5T0MHAKWSlorxYL1akFM-30" target="2A00-U51EPKpvdlTjqj8-278" edge="1">
          <mxGeometry relative="1" as="geometry">
            <Array as="points">
              <mxPoint x="3370" y="510" />
            </Array>
          </mxGeometry>
        </mxCell>
        <mxCell id="5T0MHAKWSlorxYL1akFM-30" value="AUTHENTICATE USING (ONE):&lt;br&gt;FINGERPRINT: &lt;u&gt;AU.3.B&lt;/u&gt;&lt;br&gt;IRIS: &lt;u&gt;AU.3.C&lt;/u&gt;&lt;br&gt;FACIAL: &lt;u&gt;AU.3.D&lt;/u&gt;" style="rounded=0;whiteSpace=wrap;html=1;strokeWidth=2;fontStyle=1;shape=label;fixedSize=1;" parent="1" vertex="1">
          <mxGeometry x="3207.82" y="470" width="149.37" height="80" as="geometry" />
        </mxCell>
        <mxCell id="2A00-U51EPKpvdlTjqj8-277" style="edgeStyle=orthogonalEdgeStyle;rounded=0;orthogonalLoop=1;jettySize=auto;html=1;exitX=0.5;exitY=0;exitDx=0;exitDy=0;entryX=0.5;entryY=1;entryDx=0;entryDy=0;strokeColor=#00CC00;fontStyle=1;strokeWidth=2;jumpStyle=arc;jumpSize=11;" parent="1" source="5T0MHAKWSlorxYL1akFM-32" target="5T0MHAKWSlorxYL1akFM-30" edge="1">
          <mxGeometry relative="1" as="geometry" />
        </mxCell>
        <mxCell id="2A00-U51EPKpvdlTjqj8-279" style="edgeStyle=orthogonalEdgeStyle;rounded=0;orthogonalLoop=1;jettySize=auto;html=1;exitX=0.5;exitY=1;exitDx=0;exitDy=0;strokeColor=#FF0000;fontStyle=1;strokeWidth=2;" parent="1" source="5T0MHAKWSlorxYL1akFM-32" target="_-J-_Ixpa1AOM5gLo02t-32" edge="1">
          <mxGeometry relative="1" as="geometry">
            <Array as="points">
              <mxPoint x="3283" y="1502" />
            </Array>
          </mxGeometry>
        </mxCell>
        <mxCell id="5T0MHAKWSlorxYL1akFM-32" value="IF&lt;br&gt;P/G/I UIN/RID PROVIDED" style="rounded=0;whiteSpace=wrap;html=1;fontStyle=1;strokeWidth=2;shape=rhombus;perimeter=rhombusPerimeter;" parent="1" vertex="1">
          <mxGeometry x="3230" y="1260.62" width="105" height="75.63" as="geometry" />
        </mxCell>
        <mxCell id="2A00-U51EPKpvdlTjqj8-289" style="edgeStyle=orthogonalEdgeStyle;rounded=0;orthogonalLoop=1;jettySize=auto;html=1;exitX=1;exitY=0.5;exitDx=0;exitDy=0;strokeColor=#00CC00;fontStyle=1;strokeWidth=2;" parent="1" source="5T0MHAKWSlorxYL1akFM-41" target="2A00-U51EPKpvdlTjqj8-285" edge="1">
          <mxGeometry relative="1" as="geometry">
            <Array as="points">
              <mxPoint x="3550" y="725" />
            </Array>
          </mxGeometry>
        </mxCell>
        <mxCell id="5T0MHAKWSlorxYL1akFM-41" value="APPROVES APPLICATION FOR IDENTITY PROOFING WITH FINAL COMMENTS" style="rounded=0;whiteSpace=wrap;html=1;strokeWidth=2;fontStyle=1" parent="1" vertex="1">
          <mxGeometry x="3400" y="684.38" width="137.5" height="81.25" as="geometry" />
        </mxCell>
        <mxCell id="2A00-U51EPKpvdlTjqj8-292" style="edgeStyle=orthogonalEdgeStyle;rounded=0;orthogonalLoop=1;jettySize=auto;html=1;exitX=0.5;exitY=0;exitDx=0;exitDy=0;entryX=0.5;entryY=1;entryDx=0;entryDy=0;strokeColor=#00CC00;fontStyle=1;strokeWidth=2;" parent="1" source="5T0MHAKWSlorxYL1akFM-47" target="2A00-U51EPKpvdlTjqj8-288" edge="1">
          <mxGeometry relative="1" as="geometry" />
        </mxCell>
        <mxCell id="5T0MHAKWSlorxYL1akFM-47" value="RECEIVES SUCCESSFUL COLLECTION AND RESOLUTION &lt;br&gt;NOTIFICATION&lt;br&gt;ON REGISTERED EMAIL AND PHONE NUMBER" style="rounded=0;whiteSpace=wrap;html=1;strokeWidth=2;fontStyle=1" parent="1" vertex="1">
          <mxGeometry x="3760" y="441.38" width="137.5" height="121.25" as="geometry" />
        </mxCell>
        <mxCell id="2A00-U51EPKpvdlTjqj8-261" style="edgeStyle=orthogonalEdgeStyle;rounded=0;orthogonalLoop=1;jettySize=auto;html=1;exitX=1;exitY=0.5;exitDx=0;exitDy=0;entryX=0.5;entryY=1;entryDx=0;entryDy=0;strokeColor=#FF0000;fontStyle=1;strokeWidth=2;" parent="1" source="2A00-U51EPKpvdlTjqj8-260" target="_-J-_Ixpa1AOM5gLo02t-10" edge="1">
          <mxGeometry relative="1" as="geometry" />
        </mxCell>
        <mxCell id="2A00-U51EPKpvdlTjqj8-263" style="edgeStyle=orthogonalEdgeStyle;rounded=0;orthogonalLoop=1;jettySize=auto;html=1;exitX=0.5;exitY=0;exitDx=0;exitDy=0;entryX=0;entryY=0.5;entryDx=0;entryDy=0;strokeColor=#00CC00;fontStyle=1;strokeWidth=2;jumpStyle=arc;jumpSize=11;" parent="1" source="2A00-U51EPKpvdlTjqj8-260" target="5T0MHAKWSlorxYL1akFM-8" edge="1">
          <mxGeometry relative="1" as="geometry">
            <Array as="points">
              <mxPoint x="2650" y="699" />
            </Array>
          </mxGeometry>
        </mxCell>
        <mxCell id="2A00-U51EPKpvdlTjqj8-260" value="IF&lt;br&gt;&amp;nbsp;ATLEAST ONE BIOMETRIC DATA OF APPLICANT &lt;br&gt;CAPTURED" style="rounded=0;whiteSpace=wrap;html=1;fontStyle=1;strokeWidth=2;shape=rhombus;perimeter=rhombusPerimeter;" parent="1" vertex="1">
          <mxGeometry x="2580" y="1373.5" width="140" height="103.5" as="geometry" />
        </mxCell>
        <mxCell id="2A00-U51EPKpvdlTjqj8-264" value="" style="group" parent="1" vertex="1" connectable="0">
          <mxGeometry x="2790" y="987" width="150" height="78" as="geometry" />
        </mxCell>
        <mxCell id="2A00-U51EPKpvdlTjqj8-265" value="MASK &amp;amp; ENCRYPT BIOMETRIC MISSING REASON" style="rounded=0;whiteSpace=wrap;html=1;fontStyle=1;strokeWidth=2;fontSize=11;" parent="2A00-U51EPKpvdlTjqj8-264" vertex="1">
          <mxGeometry x="30" y="9" width="120" height="60" as="geometry" />
        </mxCell>
        <mxCell id="2A00-U51EPKpvdlTjqj8-266" value="CA" style="ellipse;whiteSpace=wrap;html=1;fillColor=#dae8fc;strokeColor=#6c8ebf;gradientColor=#7ea6e0;fontStyle=1" parent="2A00-U51EPKpvdlTjqj8-264" vertex="1">
          <mxGeometry y="52" width="30" height="26" as="geometry" />
        </mxCell>
        <mxCell id="2A00-U51EPKpvdlTjqj8-267" value="HSM" style="ellipse;whiteSpace=wrap;html=1;fillColor=#dae8fc;strokeColor=#6c8ebf;gradientColor=#7ea6e0;fontStyle=1" parent="2A00-U51EPKpvdlTjqj8-264" vertex="1">
          <mxGeometry y="26" width="30" height="26" as="geometry" />
        </mxCell>
        <mxCell id="2A00-U51EPKpvdlTjqj8-268" value="KM" style="ellipse;whiteSpace=wrap;html=1;fillColor=#dae8fc;strokeColor=#6c8ebf;gradientColor=#7ea6e0;fontStyle=1" parent="2A00-U51EPKpvdlTjqj8-264" vertex="1">
          <mxGeometry width="30" height="26" as="geometry" />
        </mxCell>
        <mxCell id="2A00-U51EPKpvdlTjqj8-269" value="IDA" style="ellipse;whiteSpace=wrap;html=1;fillColor=#dae8fc;strokeColor=#6c8ebf;gradientColor=#7ea6e0;fontStyle=1" parent="1" vertex="1">
          <mxGeometry x="2795" y="1363.12" width="30" height="26" as="geometry" />
        </mxCell>
        <mxCell id="2A00-U51EPKpvdlTjqj8-270" value="HSM" style="ellipse;whiteSpace=wrap;html=1;fillColor=#dae8fc;strokeColor=#6c8ebf;gradientColor=#7ea6e0;fontStyle=1" parent="1" vertex="1">
          <mxGeometry x="2764" y="1454" width="30" height="26" as="geometry" />
        </mxCell>
        <mxCell id="2A00-U51EPKpvdlTjqj8-271" value="KM" style="ellipse;whiteSpace=wrap;html=1;fillColor=#dae8fc;strokeColor=#6c8ebf;gradientColor=#7ea6e0;fontStyle=1" parent="1" vertex="1">
          <mxGeometry x="2764" y="1390.12" width="30" height="26" as="geometry" />
        </mxCell>
        <mxCell id="2A00-U51EPKpvdlTjqj8-284" style="edgeStyle=orthogonalEdgeStyle;rounded=0;orthogonalLoop=1;jettySize=auto;html=1;exitX=1;exitY=0.5;exitDx=0;exitDy=0;entryX=0.5;entryY=1;entryDx=0;entryDy=0;strokeColor=#00CC00;fontStyle=1;strokeWidth=2;" parent="1" source="2A00-U51EPKpvdlTjqj8-278" target="5T0MHAKWSlorxYL1akFM-41" edge="1">
          <mxGeometry relative="1" as="geometry">
            <Array as="points">
              <mxPoint x="3450" y="1384" />
              <mxPoint x="3450" y="800" />
              <mxPoint x="3469" y="800" />
            </Array>
          </mxGeometry>
        </mxCell>
        <mxCell id="2A00-U51EPKpvdlTjqj8-278" value="IF AUTH.&lt;br&gt;SUCCESS" style="rounded=0;whiteSpace=wrap;html=1;fontStyle=1;strokeWidth=2;shape=rhombus;perimeter=rhombusPerimeter;" parent="1" vertex="1">
          <mxGeometry x="3317" y="1345.9899999999998" width="105" height="75.63" as="geometry" />
        </mxCell>
        <mxCell id="2A00-U51EPKpvdlTjqj8-281" value="AC" style="ellipse;whiteSpace=wrap;html=1;fillColor=#dae8fc;strokeColor=#6c8ebf;gradientColor=#7ea6e0;fontStyle=1" parent="1" vertex="1">
          <mxGeometry x="3322" y="1336.2499999999998" width="30" height="26" as="geometry" />
        </mxCell>
        <mxCell id="2A00-U51EPKpvdlTjqj8-291" style="edgeStyle=orthogonalEdgeStyle;rounded=0;orthogonalLoop=1;jettySize=auto;html=1;exitX=1;exitY=0.5;exitDx=0;exitDy=0;entryX=0.5;entryY=1;entryDx=0;entryDy=0;strokeColor=#00CC00;fontStyle=1;strokeWidth=2;jumpStyle=arc;jumpSize=11;" parent="1" source="2A00-U51EPKpvdlTjqj8-285" target="5T0MHAKWSlorxYL1akFM-47" edge="1">
          <mxGeometry relative="1" as="geometry" />
        </mxCell>
        <mxCell id="2A00-U51EPKpvdlTjqj8-285" value="STORE APPROVAL STATUS AND NOTIFY APPLICANT" style="rounded=0;whiteSpace=wrap;html=1;strokeWidth=2;fontStyle=1" parent="1" vertex="1">
          <mxGeometry x="3500" y="1300" width="118.75" height="62.5" as="geometry" />
        </mxCell>
        <mxCell id="2A00-U51EPKpvdlTjqj8-286" style="edgeStyle=orthogonalEdgeStyle;rounded=0;orthogonalLoop=1;jettySize=auto;html=1;exitX=0.5;exitY=1;exitDx=0;exitDy=0;entryX=0;entryY=0.5;entryDx=0;entryDy=0;entryPerimeter=0;strokeColor=#FF0000;fontStyle=1;strokeWidth=2;" parent="1" source="2A00-U51EPKpvdlTjqj8-278" target="_-J-_Ixpa1AOM5gLo02t-32" edge="1">
          <mxGeometry relative="1" as="geometry" />
        </mxCell>
        <mxCell id="2A00-U51EPKpvdlTjqj8-301" style="edgeStyle=orthogonalEdgeStyle;rounded=0;orthogonalLoop=1;jettySize=auto;html=1;exitX=1;exitY=0.5;exitDx=0;exitDy=0;strokeColor=#00CC00;fontStyle=1;strokeWidth=2;" parent="1" source="2A00-U51EPKpvdlTjqj8-288" target="2A00-U51EPKpvdlTjqj8-298" edge="1">
          <mxGeometry relative="1" as="geometry" />
        </mxCell>
        <mxCell id="2A00-U51EPKpvdlTjqj8-288" value="RECEIVES SUCCESSFUL COLLECTION AND RESOLUTION &lt;br&gt;NOTIFICATION&lt;br&gt;ON REGISTERED EMAIL AND PHONE NUMBER" style="rounded=0;whiteSpace=wrap;html=1;strokeWidth=2;fontStyle=1" parent="1" vertex="1">
          <mxGeometry x="3760" y="260" width="137.5" height="121.25" as="geometry" />
        </mxCell>
        <mxCell id="2A00-U51EPKpvdlTjqj8-296" style="edgeStyle=orthogonalEdgeStyle;rounded=0;orthogonalLoop=1;jettySize=auto;html=1;exitX=0.5;exitY=0;exitDx=0;exitDy=0;entryX=0.5;entryY=1;entryDx=0;entryDy=0;strokeColor=#00CC00;fontStyle=1;strokeWidth=2;" parent="1" source="2A00-U51EPKpvdlTjqj8-293" target="2A00-U51EPKpvdlTjqj8-294" edge="1">
          <mxGeometry relative="1" as="geometry" />
        </mxCell>
        <mxCell id="2A00-U51EPKpvdlTjqj8-293" value="RECEIVE REJECTED APPLICATION NOTIFICATION ON EMAIL AND PHONE WITH REASON" style="rounded=0;whiteSpace=wrap;html=1;strokeWidth=2;fontStyle=1" parent="1" vertex="1">
          <mxGeometry x="3601.25" y="441.38" width="137.5" height="121.25" as="geometry" />
        </mxCell>
        <mxCell id="2A00-U51EPKpvdlTjqj8-302" style="edgeStyle=orthogonalEdgeStyle;rounded=0;orthogonalLoop=1;jettySize=auto;html=1;exitX=0.5;exitY=0;exitDx=0;exitDy=0;strokeColor=#00CC00;fontStyle=1;strokeWidth=2;" parent="1" source="2A00-U51EPKpvdlTjqj8-294" target="2A00-U51EPKpvdlTjqj8-298" edge="1">
          <mxGeometry relative="1" as="geometry" />
        </mxCell>
        <mxCell id="2A00-U51EPKpvdlTjqj8-294" value="RECEIVE REJECTED APPLICATION NOTIFICATION ON EMAIL AND PHONE WITH REASON" style="rounded=0;whiteSpace=wrap;html=1;strokeWidth=2;fontStyle=1" parent="1" vertex="1">
          <mxGeometry x="3601.25" y="260" width="137.5" height="121.25" as="geometry" />
        </mxCell>
        <mxCell id="2A00-U51EPKpvdlTjqj8-297" value="" style="edgeStyle=orthogonalEdgeStyle;rounded=0;orthogonalLoop=1;jettySize=auto;html=1;strokeColor=#00CC00;fontStyle=1;strokeWidth=2;" parent="1" source="2A00-U51EPKpvdlTjqj8-298" target="2A00-U51EPKpvdlTjqj8-299" edge="1">
          <mxGeometry relative="1" as="geometry" />
        </mxCell>
        <mxCell id="2A00-U51EPKpvdlTjqj8-298" value="LOGS THE PROCESS AND STATUS" style="rounded=0;whiteSpace=wrap;html=1;fontStyle=1;strokeWidth=2;shape=label;boundedLbl=1;backgroundOutline=1;size=15;" parent="1" vertex="1">
          <mxGeometry x="3860" y="1360" width="120" height="61" as="geometry" />
        </mxCell>
        <mxCell id="2A00-U51EPKpvdlTjqj8-299" value="&lt;b&gt;END&lt;/b&gt;" style="strokeWidth=2;html=1;shape=mxgraph.flowchart.terminator;whiteSpace=wrap;fillColor=#f8cecc;strokeColor=#b85450;" parent="1" vertex="1">
          <mxGeometry x="3870" y="1450" width="100" height="40" as="geometry" />
        </mxCell>
        <mxCell id="2A00-U51EPKpvdlTjqj8-300" value="IDA" style="ellipse;whiteSpace=wrap;html=1;fillColor=#dae8fc;strokeColor=#6c8ebf;gradientColor=#7ea6e0;fontStyle=1" parent="1" vertex="1">
          <mxGeometry x="3860" y="1330.62" width="30" height="29.38" as="geometry" />
        </mxCell>
        <mxCell id="2A00-U51EPKpvdlTjqj8-303" value="AC" style="ellipse;whiteSpace=wrap;html=1;fillColor=#dae8fc;strokeColor=#6c8ebf;gradientColor=#7ea6e0;fontStyle=1" parent="1" vertex="1">
          <mxGeometry x="2231" y="1268" width="30" height="26" as="geometry" />
        </mxCell>
        <mxCell id="7hkmRnS3vxzl-6cs4ylp-1" value="IDA" style="ellipse;whiteSpace=wrap;html=1;fillColor=#dae8fc;strokeColor=#6c8ebf;gradientColor=#7ea6e0;fontStyle=1" parent="1" vertex="1">
          <mxGeometry x="3500" y="1272.5" width="30" height="26" as="geometry" />
        </mxCell>
        <mxCell id="7hkmRnS3vxzl-6cs4ylp-2" value="HSM" style="ellipse;whiteSpace=wrap;html=1;fillColor=#dae8fc;strokeColor=#6c8ebf;gradientColor=#7ea6e0;fontStyle=1" parent="1" vertex="1">
          <mxGeometry x="3470" y="1337.1200000000001" width="30" height="26" as="geometry" />
        </mxCell>
        <mxCell id="7hkmRnS3vxzl-6cs4ylp-3" value="KM" style="ellipse;whiteSpace=wrap;html=1;fillColor=#dae8fc;strokeColor=#6c8ebf;gradientColor=#7ea6e0;fontStyle=1" parent="1" vertex="1">
          <mxGeometry x="3470" y="1299.5" width="30" height="26" as="geometry" />
        </mxCell>
        <mxCell id="2A00-U51EPKpvdlTjqj8-282" style="edgeStyle=orthogonalEdgeStyle;rounded=0;orthogonalLoop=1;jettySize=auto;html=1;exitX=0.5;exitY=0;exitDx=0;exitDy=0;entryX=0;entryY=0.5;entryDx=0;entryDy=0;strokeColor=#FF0000;fontStyle=1;strokeWidth=2;jumpStyle=arc;jumpSize=11;" parent="1" source="5T0MHAKWSlorxYL1akFM-27" target="5T0MHAKWSlorxYL1akFM-41" edge="1">
          <mxGeometry relative="1" as="geometry" />
        </mxCell>
        <mxCell id="2A00-U51EPKpvdlTjqj8-283" style="edgeStyle=orthogonalEdgeStyle;rounded=0;orthogonalLoop=1;jettySize=auto;html=1;exitX=0.5;exitY=0;exitDx=0;exitDy=0;entryX=0;entryY=0.5;entryDx=0;entryDy=0;strokeColor=#FF0000;fontStyle=1;strokeWidth=2;jumpStyle=arc;jumpSize=11;" parent="1" source="5T0MHAKWSlorxYL1akFM-29" target="5T0MHAKWSlorxYL1akFM-41" edge="1">
          <mxGeometry relative="1" as="geometry" />
        </mxCell>
        <mxCell id="2A00-U51EPKpvdlTjqj8-109" value="" style="group" parent="1" vertex="1" connectable="0">
          <mxGeometry x="2090" y="834" width="1910" height="60" as="geometry" />
        </mxCell>
        <mxCell id="2A00-U51EPKpvdlTjqj8-110" value="API/ HTTPS (SSL/TLS)" style="shape=label;whiteSpace=wrap;html=1;boundedLbl=1;backgroundOutline=1;darkOpacity=0.05;darkOpacity2=0.1;fillColor=#f8cecc;strokeColor=#b85450;rounded=0;fontStyle=1" parent="2A00-U51EPKpvdlTjqj8-109" vertex="1">
          <mxGeometry width="1909.9999999999998" height="20" as="geometry" />
        </mxCell>
        <mxCell id="2A00-U51EPKpvdlTjqj8-111" value="" style="group" parent="2A00-U51EPKpvdlTjqj8-109" vertex="1" connectable="0">
          <mxGeometry y="20" width="1909.9999999999998" height="40" as="geometry" />
        </mxCell>
        <mxCell id="2A00-U51EPKpvdlTjqj8-112" value="&lt;b&gt;SINGLE/ DUAL FIREWALL&lt;/b&gt;" style="shape=label;whiteSpace=wrap;html=1;boundedLbl=1;backgroundOutline=1;darkOpacity=0.05;darkOpacity2=0.1;fillColor=#e51400;fontColor=#ffffff;strokeColor=#B20000;rounded=0;" parent="2A00-U51EPKpvdlTjqj8-111" vertex="1">
          <mxGeometry width="1909.9999999999998" height="20" as="geometry" />
        </mxCell>
        <mxCell id="2A00-U51EPKpvdlTjqj8-113" value="&lt;b&gt;IDS, IPS, HONEYPOT&lt;/b&gt;" style="shape=label;whiteSpace=wrap;html=1;boundedLbl=1;backgroundOutline=1;darkOpacity=0.05;darkOpacity2=0.1;fillColor=#f0a30a;strokeColor=#BD7000;rounded=0;fontColor=#000000;" parent="2A00-U51EPKpvdlTjqj8-111" vertex="1">
          <mxGeometry y="20" width="1909.9999999999998" height="20" as="geometry" />
        </mxCell>
        <mxCell id="2A00-U51EPKpvdlTjqj8-114" value="" style="group" parent="1" vertex="1" connectable="0">
          <mxGeometry x="2090" y="1178" width="1910" height="60" as="geometry" />
        </mxCell>
        <mxCell id="2A00-U51EPKpvdlTjqj8-115" value="API/ HTTPS (SSL/TLS)" style="shape=label;whiteSpace=wrap;html=1;boundedLbl=1;backgroundOutline=1;darkOpacity=0.05;darkOpacity2=0.1;fillColor=#f8cecc;strokeColor=#b85450;rounded=0;fontStyle=1" parent="2A00-U51EPKpvdlTjqj8-114" vertex="1">
          <mxGeometry width="1909.9999999999995" height="20" as="geometry" />
        </mxCell>
        <mxCell id="2A00-U51EPKpvdlTjqj8-116" value="" style="group" parent="2A00-U51EPKpvdlTjqj8-114" vertex="1" connectable="0">
          <mxGeometry y="20" width="1909.9999999999995" height="40" as="geometry" />
        </mxCell>
        <mxCell id="2A00-U51EPKpvdlTjqj8-117" value="&lt;b&gt;SINGLE/ DUAL FIREWALL&lt;/b&gt;" style="shape=label;whiteSpace=wrap;html=1;boundedLbl=1;backgroundOutline=1;darkOpacity=0.05;darkOpacity2=0.1;fillColor=#e51400;fontColor=#ffffff;strokeColor=#B20000;rounded=0;" parent="2A00-U51EPKpvdlTjqj8-116" vertex="1">
          <mxGeometry width="1909.9999999999995" height="20" as="geometry" />
        </mxCell>
        <mxCell id="2A00-U51EPKpvdlTjqj8-118" value="&lt;b&gt;IDS, IPS, HONEYPOT&lt;/b&gt;" style="shape=label;whiteSpace=wrap;html=1;boundedLbl=1;backgroundOutline=1;darkOpacity=0.05;darkOpacity2=0.1;fillColor=#f0a30a;strokeColor=#BD7000;rounded=0;fontColor=#000000;" parent="2A00-U51EPKpvdlTjqj8-116" vertex="1">
          <mxGeometry y="20" width="1909.9999999999995" height="20" as="geometry" />
        </mxCell>
        <mxCell id="4kRvOTjY_woNSKGylb5H-1" value="&lt;div style=&quot;font-size: 18px;&quot;&gt;&lt;font style=&quot;font-size: 18px;&quot;&gt;&lt;b style=&quot;font-size: 18px;&quot;&gt;Purpose:&lt;/b&gt;&lt;/font&gt;&lt;/div&gt;&lt;div style=&quot;&quot;&gt;This SOP outlines the criteria and process for the approval or rejection of an applicant&#39;s identity verification based on biometric and documentation verification.&lt;br&gt;&lt;/div&gt;" style="whiteSpace=wrap;html=1;align=left;rounded=0;strokeWidth=2;verticalAlign=middle;fontFamily=Helvetica;fontSize=18;fontStyle=0;" vertex="1" parent="1">
          <mxGeometry x="2060" y="90" width="1970" height="60" as="geometry" />
        </mxCell>
      </root>
    </mxGraphModel>
  </diagram>
</mxfile>
